<svg width="111" height="80" viewBox="0 0 111 80" fill="none" xmlns="http://www.w3.org/2000/svg">
<path d="M109.762 43.9086C109.088 46.2832 107.803 47.9643 105.907 48.9519C104.496 49.6454 102.558 50.0341 100.094 50.1182C97.3773 50.0762 95.4607 50.1077 94.3444 50.2128C92.4699 50.4019 91.2483 51.0218 90.6797 52.0725C89.6476 53.9848 89.9846 55.7499 91.6906 57.368C92.512 58.1455 94.6182 59.4904 98.0091 61.4027C101.084 63.1258 103.138 64.6703 104.17 66.0362C105.728 68.0956 105.865 70.4597 104.58 73.1284C103.485 75.44 101.537 76.5012 98.7358 76.3121C95.6397 75.6606 93.523 75.44 92.3857 75.6501C91.1009 75.8813 89.6371 76.7008 87.9943 78.1087C86.52 79.3696 85.0983 80 83.7293 80C82.4867 80 81.2651 79.6428 80.0646 78.9283L76.9053 76.5642C74.0199 74.3157 70.8922 73.2545 67.5223 73.3806C65.8585 73.4437 64.3525 73.8009 63.0046 74.4523L59.6874 76.5012C56.844 78.4134 53.6848 79.3696 50.2096 79.3696C46.6923 79.3696 43.512 78.0142 40.6687 75.3034L37.3198 72.0883C35.9719 70.9745 34.6029 70.218 33.2128 69.8188C31.0856 69.2094 28.6845 69.2094 26.0097 69.8188C24.5354 70.155 22.2712 70.9115 19.2173 72.0883C16.5635 73.0969 14.6364 73.6643 13.4359 73.7904C11.6035 73.9795 10.1924 73.4437 9.20246 72.1828C7.45434 69.9133 8.023 67.0344 10.9085 63.5461L13.9098 59.9527C14.7522 58.7339 14.9312 57.7988 14.4468 57.1474C13.9203 56.4119 12.962 55.918 11.5719 55.6659L7.52806 55.1615C3.84226 54.6362 1.48335 52.85 0.451322 49.803C-0.391146 47.3023 -0.0541587 44.6966 1.46228 41.9858C2.62068 39.9475 4.87428 37.2682 8.22309 33.948L17.8588 24.3026C21.8395 20.0578 25.104 15.855 27.6525 11.6942L30.4643 6.87155C31.412 5.23247 32.2545 4.00315 32.9917 3.18361C34.8451 1.0612 37.4357 0 40.7634 0C42.5537 0 44.6598 0.756501 47.0819 2.2695C49.504 3.76149 51.6523 4.50749 53.5268 4.50749C55.6962 4.50749 58.55 3.82453 62.0884 2.45863C65.3951 1.17678 68.1015 0.630418 70.2077 0.819543C72.7772 1.0507 74.8939 2.01734 76.5578 3.71946C77.7794 4.9803 78.9904 6.95561 80.1909 9.64539L83.3818 16.6745C84.814 19.3433 86.4884 21.4132 88.405 22.8842C89.6266 23.8298 91.8591 25.1011 95.1026 26.6982C98.8727 28.5264 101.484 29.9028 102.938 30.8274C108.919 34.5679 111.194 38.9283 109.762 43.9086Z" fill="#0D131A"/>
<path d="M108.466 44.0032C107.919 45.8734 106.739 47.1553 104.928 47.8487C103.664 48.332 101.779 48.5947 99.2728 48.6367L93.5861 48.8889C91.7116 49.2041 90.4795 49.9711 89.8898 51.1899C88.7525 53.5855 88.9841 55.7184 90.5848 57.5887C91.5537 58.7234 93.5967 60.1629 96.7138 61.907C99.8941 63.6932 101.958 65.1117 102.906 66.1623C104.528 67.9695 104.791 70.0184 103.696 72.3089C102.685 74.4103 100.831 75.3559 98.1355 75.1458C95.1447 74.5154 93.1122 74.2947 92.0381 74.4839C90.9007 74.694 89.5317 75.4505 87.931 76.7534C86.4989 77.9091 85.0035 78.487 83.4449 78.487C82.6446 78.487 81.6863 78.1508 80.57 77.4783L77.2212 75.2404C73.9566 73.118 70.6499 72.1198 67.3011 72.2459C65.7215 72.3089 64.2893 72.6451 63.0045 73.2545C62.4359 73.5067 61.3828 74.1371 59.8453 75.1458C57.1072 76.953 53.9901 77.8566 50.4939 77.8566C47.3557 77.8566 44.2491 76.4592 41.1741 73.6643L37.5725 70.5122C36.1824 69.4615 34.7713 68.7996 33.3391 68.5264C30.4326 67.959 25.8517 68.684 19.5964 70.7014C16.8373 71.605 14.8996 72.1303 13.7833 72.2774C12.0141 72.5506 10.7715 72.2774 10.0554 71.4579C8.58108 69.7767 9.26559 67.2131 12.1089 63.7668L15.0786 60.0158C15.9632 58.7339 16.2159 57.7463 15.8368 57.0528C15.2471 55.9181 14.2572 55.1405 12.8671 54.7203L8.7601 54.0583C6.96986 53.8482 5.60085 53.4804 4.65307 52.9551C3.28406 52.1986 2.29416 50.9588 1.68337 49.2356C0.988335 47.2813 1.45169 44.9803 3.07344 42.3326C4.29502 40.3783 6.56969 37.678 9.89744 34.2317L19.2488 24.4917C23.0189 20.352 26.0202 16.4434 28.2527 12.766C31.1171 8.10088 32.96 5.31654 33.7814 4.41294C35.7612 2.22749 38.1938 1.13477 41.0793 1.13477C42.7642 1.13477 44.7019 1.87025 46.8923 3.34123C49.0617 4.79119 51.4943 5.50566 54.1902 5.48465C56.4649 5.46363 59.2766 4.78068 62.6254 3.43579C65.7215 2.19597 68.2489 1.67062 70.2076 1.85975C72.398 2.06989 74.2304 3.02602 75.7047 4.72815C76.7789 5.94695 77.9057 7.91176 79.0851 10.6226L82.276 17.5571C83.6661 20.1419 85.2773 22.1382 87.1096 23.5461C88.2891 24.4497 90.4795 25.6475 93.6809 27.1395C97.4509 28.9047 100.073 30.2285 101.547 31.1111C107.592 34.7465 109.898 39.0439 108.466 44.0032Z" fill="#E097BF"/>
<path d="M63.5731 19.4485C63.5521 19.2594 63.6047 19.0912 63.7311 18.9441C63.8574 18.8181 64.0154 18.7445 64.205 18.7235C64.3945 18.7025 64.563 18.755 64.7104 18.8811C64.8579 18.9862 64.9421 19.1438 64.9632 19.3539C64.9842 19.543 64.9316 19.7112 64.8052 19.8582L64.3313 20.0789C63.868 20.1209 63.6152 19.9108 63.5731 19.4485Z" fill="#0D131A"/>
<path d="M44.8073 18.6289C44.7862 18.4398 44.8283 18.2717 44.9336 18.1246C45.06 17.9985 45.218 17.9249 45.4075 17.9039C45.8709 17.8619 46.1236 18.072 46.1657 18.5344L46.0078 19.0387L45.5339 19.2593C45.3443 19.2803 45.1759 19.2278 45.0284 19.1017L44.8073 18.6289Z" fill="#0D131A"/>
<path d="M4.62146 51.1584C5.56923 51.5156 6.80134 51.7993 8.31779 52.0094C12.6354 52.5978 15.3103 53.5329 16.3423 54.8148C17.3111 56.0126 16.932 57.6937 15.205 59.8581C15.9842 58.6603 16.1949 57.7252 15.8368 57.0528C15.2471 55.918 14.2572 55.1405 12.8671 54.7202L8.76008 54.0583C6.96984 53.8482 5.60083 53.4804 4.65305 52.9551C3.28404 52.1986 2.29414 50.9587 1.68335 49.2356C2.52582 50.0762 3.50519 50.7171 4.62146 51.1584Z" fill="#C283A6"/>
<path d="M104.201 46.5563C106.307 45.9469 107.782 44.8962 108.624 43.4042L108.466 44.0031C107.919 45.8733 106.739 47.1552 104.928 47.8486C103.664 48.3319 101.779 48.5946 99.2728 48.6366L93.5861 48.8888C91.7116 49.204 90.4795 49.971 89.8898 51.1898C89.1105 52.8499 88.9736 54.3839 89.4791 55.7919C87.9416 53.7956 87.6151 51.9148 88.4997 50.1496C89.4054 48.4055 91.1009 47.5334 93.5861 47.5334C98.3882 47.5334 101.927 47.2077 104.201 46.5563Z" fill="#C283A6"/>
<path d="M30.6221 65.6265C32.7493 65.6265 34.6765 66.1623 36.4035 67.234C37.4145 67.8644 38.773 69.0307 40.479 70.7328C42.185 72.435 43.575 73.6012 44.6492 74.2317C46.4184 75.3034 48.4087 75.8392 50.6202 75.8392C54.0743 75.8392 57.2652 74.7885 60.1927 72.6871C61.7513 71.5734 62.8676 70.8484 63.5415 70.5122C64.9106 69.8608 66.4165 69.5351 68.0593 69.5351C71.5345 69.5351 74.7043 70.7328 77.5686 73.1284L80.5699 75.5871C81.6651 76.3226 82.7498 76.6903 83.824 76.6903C85.1509 76.6903 86.5304 75.9548 87.9626 74.4838C89.3948 73.0129 91.0481 72.2774 92.9226 72.2774C94.1863 72.2774 96.124 72.7082 98.7357 73.5697C100.442 74.1161 101.958 73.9375 103.285 73.0339C102.211 74.694 100.389 75.3874 97.8195 75.1143L94.7234 74.6099L92.038 74.4838C90.9007 74.694 89.5317 75.4505 87.931 76.7533C86.4988 77.9091 85.0034 78.487 83.4449 78.487C82.6445 78.487 81.6862 78.1508 80.5699 77.4783L77.2211 75.2403C73.9566 73.1179 70.6499 72.1198 67.3011 72.2459C65.7214 72.3089 64.2892 72.6451 63.0045 73.2545C62.4358 73.5067 61.3827 74.1371 59.8452 75.1458C57.1072 76.953 53.9901 77.8566 50.4938 77.8566C47.3556 77.8566 44.249 76.4591 41.174 73.6643L37.5725 70.5122C36.1824 69.4615 34.7713 68.7996 33.3391 68.5264C30.4325 67.959 25.8516 68.684 19.5963 70.7013C16.8372 71.6049 14.8995 72.1303 13.7833 72.2774C12.0141 72.5506 10.7714 72.2774 10.0553 71.4578C9.78153 71.1636 9.58145 70.8379 9.45508 70.4807C11.7929 71.9306 15.1839 71.6049 19.6279 69.5035L25.0934 66.9188C27.1996 66.0573 29.0425 65.6265 30.6221 65.6265Z" fill="#C283A6"/>
<path d="M53.8111 27.8645C60.7193 28.2217 65.6478 28.3268 68.5964 28.1797C69.3125 28.1377 70.0075 27.8435 70.6815 27.2971C70.9132 27.108 71.0817 27.0554 71.187 27.1395C71.2923 27.2236 71.2607 27.3812 71.0922 27.6123L69.9865 28.621C69.6074 28.7891 69.1124 28.8942 68.5016 28.9362C64.6473 29.1253 59.919 29.0728 54.3166 28.7786L39.2469 27.4862L37.9832 27.0134L36.9407 26.0993C36.5615 25.616 36.4352 25.3323 36.5615 25.2483C36.6669 25.1852 36.9407 25.3428 37.383 25.7211C38.0148 26.2464 38.6782 26.5616 39.3733 26.6667L53.8111 27.8645Z" fill="#0D131A"/>
</svg>
